<?xml version="1.0" encoding="UTF-8"?>
<svg id="uuid-84d4bd9b-7232-43c8-87e9-595158999572" data-name="Capa 2" xmlns="http://www.w3.org/2000/svg" viewBox="0 0 247.03 216.12">
  <g id="uuid-7f82af2a-c108-41ca-ab47-140aa8fb0c32" data-name="Capa 1">
    <path fill="currentColor" d="m0,200.73c2.76-2.47,5.42-4.77,8.9-5.81,3.56-1.06,6.52-3.13,9.37-5.44,5.17-4.18,10.44-8.23,15.64-12.37,7.28-5.8,14.68-11.46,21.21-18.14,4.31-4.41,7.88-9.31,10.49-14.9,2.36-5.07,4.13-10.35,5.49-15.76,2.42-9.64,4.56-19.35,7.28-28.91,1.97-6.95,4.49-13.76,7.11-20.5,3.88-10.01,8.85-19.51,14.34-28.73,4.04-6.8,8.41-13.39,13.32-19.59,4.81-6.08,9.96-11.87,15.99-16.79,6.32-5.14,13.11-9.47,20.98-11.9,8.09-2.49,16.19-2.46,24.31-.25,11.13,3.02,20.72,8.89,29.58,16.08,10.36,8.41,18.99,18.37,26.34,29.46,3.28,4.96,6.12,10.18,8.6,15.6,2.58,5.64,4.78,11.39,6.19,17.42,2.09,8.95,2.79,17.93.3,26.93-1.8,6.49-5.09,12.17-9.44,17.26-6.72,7.86-15.03,13.63-24.05,18.49-10.88,5.85-22.39,10.07-34.25,13.38-3.92,1.09-7.85,2.15-11.81,3.04-8.51,1.91-17.08,3.41-25.78,4.22-10.46.97-20.94.89-31.43.89-5.12,0-10.26.03-15.37.28-10.68.53-20.61,3.5-29.64,9.36-7.86,5.1-15.16,10.93-22.53,16.69-5.14,4.02-10.26,8.07-15.45,12.02-2.68,2.04-4.56,4.7-6.35,7.47-1.64,2.54-4.2,4.05-6.5,5.85-.16.13-.87-.16-1.09-.44-2.6-3.23-5.15-6.5-7.71-9.76-1.33-1.69-2.64-3.39-4.02-5.17Zm89.33-42.08c.41,0,.72.02,1.03,0,5.96-.41,11.93-.77,17.89-1.28,3-.25,5.98-.75,8.7-2.2,3.63-1.94,4.49-5.89,1.98-9.12-1.33-1.72-3.29-2.47-5.19-3.29-9.3-4.02-15.33-10.85-17.74-20.75-.52-2.12-.82-4.31-1.46-6.39-.84-2.7-3.25-4.37-5.81-4.26-2.38.1-4.09,1.32-5.4,3.26-2.21,3.25-3.47,6.93-4.66,10.6-2.18,6.73-4.18,13.52-6.3,20.27-.94,3-1.01,5.97.48,8.75,1.99,3.73,5.42,5.01,9.45,4.87,2.38-.08,4.75-.3,7.03-.45Zm82.1-94.29c.28,3.54,2.44,5.68,5.87,5.81,3.35.13,6.03-2.64,6.05-5.9.01-3.26-2.67-5.94-6-5.98-3.16-.04-5.93,2.79-5.92,6.07Zm2.36-12.08c0-3.36-2.59-6-5.9-5.98-3.21.02-5.87,2.71-5.88,5.94,0,3.2,2.73,6,5.85,5.99,3.34,0,5.92-2.6,5.93-5.96Zm16.64,35.82c-.04,3.64,2.43,5.98,5.87,6.07,3.17.09,5.85-2.61,5.9-5.78.05-3.38-2.57-6.08-5.94-6.13-3.14-.04-5.78,2.61-5.83,5.83Zm-31.92-42.01c3.42,0,5.88-2.47,5.88-5.92,0-3.21-2.67-5.93-5.93-5.85-3.24.08-5.87,2.45-5.85,5.9.02,3.47,2.41,5.86,5.91,5.87Zm32.57-17.94c-3.28-.04-5.88,2.48-5.98,5.8-.09,3.07,2.63,5.97,5.67,6.06,3.33.1,6.31-2.8,6.29-6.13-.02-3.06-2.77-5.69-5.98-5.73Zm-17.86,84.17c3.33,0,5.96-2.64,5.93-5.96-.03-3.17-2.78-5.84-5.99-5.82-3.22.02-5.96,2.73-5.94,5.87.02,3.33,2.63,5.9,6,5.9Zm-7.36-33.1c3.59-.05,5.75-2.51,5.94-5.99.16-2.82-2.52-5.87-6.08-5.81-3.17.05-5.82,2.74-5.81,6,.01,3.27,2.62,5.81,5.96,5.8Zm-30.52-14.85c3.32.02,5.96-2.54,5.98-5.78.02-3.37-2.54-5.97-5.89-6-3.25-.03-5.97,2.65-6.03,5.92-.05,3.12,2.7,5.84,5.94,5.86Zm7.85-36.17c-.04,3.46,2.32,5.88,5.74,5.91,3.39.03,6.04-2.52,6.05-5.83,0-3.28-2.65-5.93-6.01-5.94-2.97,0-6,2.62-5.77,5.86Zm16.36,102.62c-3.43.02-6.06,2.55-5.94,5.91.12,3.32,2.44,5.81,5.82,5.85,3.96.05,6-3.01,6.06-5.84.07-3.39-2.58-5.94-5.95-5.92Zm-45.13-81.08c-3.4,0-5.95,2.51-5.97,5.87-.02,3.26,2.58,5.89,5.85,5.93,3.26.04,5.93-2.57,5.93-5.81,0-3.46-2.44-5.98-5.82-5.99Zm8.8,72.09c.01,3.21,2.66,5.94,5.74,5.91,3.32-.03,6.03-2.68,6.05-5.91.02-3.3-2.74-6.05-6.03-6-3.25.05-5.78,2.68-5.77,6Zm59.45,2.47c3.29,0,5.89-2.57,5.9-5.82,0-3.34-2.6-5.96-5.92-5.97-3.24,0-5.86,2.62-5.87,5.88,0,3.45,2.45,5.92,5.89,5.92Zm-18.83-23.98c3.29,0,5.74-2.49,5.75-5.82.01-3.45-2.5-5.99-5.89-5.96-3.29.02-5.93,2.66-5.9,5.9.03,3.35,2.64,5.88,6.04,5.87Zm61.41-30.34c0-3.37-2.51-5.89-5.84-5.88-3.3,0-5.9,2.58-5.93,5.87-.03,3.31,2.63,5.94,5.98,5.91,3.4-.02,5.8-2.47,5.79-5.9Zm-15.75,51.25c0-3.35-2.63-5.91-6.01-5.88-3.03.03-5.77,2.87-5.76,5.99,0,3.2,2.69,5.87,5.94,5.91,3.3.04,5.84-2.58,5.84-6.02Zm-87.81-26.59c3.19,0,6.03-2.79,6-5.89-.03-3.19-2.72-5.98-5.76-5.99-3.45,0-6.1,2.55-6.15,5.94-.05,3.14,2.73,5.93,5.92,5.94Zm82.36-36.69c-.01,3.35,2.5,5.92,5.8,5.95,3.38.03,5.96-2.52,5.97-5.9,0-3.34-2.51-5.87-5.85-5.89-3.31-.02-5.91,2.54-5.92,5.84Zm-84.43,57.79c3.12,0,5.93-2.75,5.95-5.81.01-3.4-2.69-6.09-6.14-6.09-3,0-5.73,2.83-5.77,6-.04,3.11,2.79,5.91,5.97,5.91Zm-3.6-17.87c.02-3.43-2.58-6.04-5.97-6.01-3.18.03-5.82,2.76-5.82,6,0,3.13,2.66,5.88,5.82,5.88,3.54,0,6.18-2.79,5.97-5.86Zm101.4-.87c3.01.02,5.84-2.7,5.83-5.61,0-3.46-2.56-6.14-5.89-6.17-3.39-.03-5.97,2.57-6,6.05-.02,3.19,2.64,5.71,6.05,5.73Zm-61-29.8c3.22-.01,5.72-2.47,5.87-5.46.19-3.7-2.92-6.31-5.96-6.3-3.32.01-5.86,2.61-5.84,6.01.02,3.35,2.51,5.76,5.93,5.75Zm1.62,36.4c.04-3.34-2.45-5.89-5.79-5.92-3.33-.03-5.96,2.5-5.98,5.76-.03,3.37,2.53,5.98,5.89,6.02,3.29.04,5.85-2.51,5.88-5.86Zm-7.93,15.21c-3.3,0-5.96,2.59-5.96,5.81,0,3.32,2.65,5.96,5.97,5.97,3.3,0,5.81-2.61,5.81-6.04,0-3.29-2.49-5.73-5.83-5.73Zm29.28-69.73c3.15-.12,6.03-2.25,6.03-6,0-3.21-2.57-5.76-5.83-5.79-3.37-.04-6.02,2.51-6.04,5.8-.02,3.2,2.67,5.96,5.84,5.99Zm-.5,48.19c-.03,3.4,2.32,5.85,5.65,5.89,3.44.04,6.1-2.43,6.14-5.72.04-3.33-2.65-6.04-6.03-6.06-3.14-.02-5.73,2.63-5.76,5.89Zm-3.62-6.1c3.39,0,6.02-2.58,6-5.91-.01-3.16-2.77-5.84-6.01-5.87-3.19-.03-5.94,2.78-5.93,6.06.01,3.17,2.65,5.71,5.94,5.71Zm39.88,15.18c-3.32,0-5.93,2.6-5.9,5.86.03,3.25,2.78,5.94,6.06,5.92,3.17-.02,5.86-2.8,5.81-6.01-.05-3.34-2.57-5.78-5.97-5.77Zm-60.78-18.02c3.28-.01,5.82-2.62,5.79-5.94-.02-3.3-2.62-5.87-5.91-5.85-3.41.03-5.88,2.65-5.9,6.27-.01,2.94,2.82,5.54,6.02,5.53Zm13.1,27.15c0-3.33-2.56-5.85-5.89-5.82-3.28.02-5.9,2.64-5.9,5.91,0,3.28,2.6,5.86,5.91,5.87,3.42.01,5.89-2.49,5.88-5.96Zm38.29-21.12c-3.24-.26-5.98,2.85-5.95,5.81.03,3.24,2.68,5.98,5.87,5.99,3.34.02,5.94-2.6,5.94-5.98,0-3.4-2.43-5.82-5.85-5.83Zm-64.69-45.04c0,3.41,2.41,5.88,5.8,5.91,3.34.03,5.98-2.58,5.99-5.91,0-3.26-2.64-5.88-5.93-5.88-3.3,0-5.84,2.55-5.85,5.88Zm-4.2,42.09c-.25,3.45,2.77,6.05,5.8,6.06,3.28,0,5.96-2.57,5.98-5.81.01-3.32-2.52-5.94-5.79-5.98-3.4-.04-5.96,2.4-5.98,5.73Zm37.82,48.1c0,3.35,2.48,5.86,5.83,5.88,3.41.01,5.91-2.47,5.94-5.92.03-3.21-2.66-5.87-5.93-5.86-3.31.01-5.84,2.56-5.84,5.9Zm14.23-90.24c-3.36,0-5.92,2.58-5.94,5.97-.01,3.1,2.85,5.84,6.06,5.8,3.24-.04,5.84-2.7,5.85-5.98.01-3.23-2.63-5.8-5.98-5.79Zm-23.66,78.23c0,3.47,2.45,5.92,5.91,5.91,3.24,0,5.87-2.6,5.88-5.8,0-3.37-2.57-5.97-5.94-5.98-3.33,0-5.85,2.52-5.85,5.86Zm-27.8-84.28c3.34,0,6-2.58,5.98-5.8-.01-3.24-2.75-5.96-6.01-5.98-3.16-.02-5.94,2.78-5.9,5.94.04,3.32,2.6,5.85,5.93,5.84Zm56.77,71.9c3.41,0,5.87-2.46,5.86-5.83-.01-3.28-2.63-5.93-5.88-5.93-3.36,0-5.91,2.64-5.89,6.14.01,3.23,2.55,5.64,5.91,5.63Zm-62.48-68.63c0-3.34-2.51-5.89-5.82-5.89-3.33,0-5.94,2.54-5.96,5.81-.02,3.3,2.62,5.95,5.94,5.97,3.31.02,5.84-2.53,5.84-5.88Zm54.44,83.7c0,3.56,2.44,6.07,5.9,6.07,3.38,0,5.89-2.49,5.89-5.83,0-3.31-2.56-5.92-5.85-5.95-3.33-.03-5.95,2.72-5.94,5.71Zm-51.45-17.58c0,3.38,2.59,6.01,5.91,5.99,3.26-.02,5.88-2.66,5.87-5.93,0-3.25-2.67-5.94-5.86-5.93-3.25,0-5.91,2.65-5.92,5.87Zm-9.42-11.95c-.02,3.37,2.55,5.96,5.92,5.95,3.11,0,5.86-2.74,5.87-5.85.01-3.34-2.5-5.91-5.82-5.94-3.49-.04-5.95,2.37-5.97,5.84Zm-18.99-24c0,3.24,2.67,5.95,5.87,5.97,3.29.02,5.94-2.65,5.93-5.98,0-3.29-2.5-5.83-5.76-5.87-3.3-.05-6.04,2.63-6.04,5.89Zm38.59-.32c3.27-.02,5.87-2.67,5.83-5.94-.04-3.28-2.67-5.86-5.95-5.84-3.35.02-5.88,2.62-5.86,6.02.02,3.27,2.63,5.78,5.98,5.76Zm-21.06-14.63c-3.33,0-5.96,2.54-5.99,5.78-.03,3.27,2.66,5.99,5.94,6,3.25,0,5.88-2.64,5.87-5.91,0-3.39-2.48-5.88-5.83-5.88Zm52.04-30.41c.05-3.47-2.35-5.97-5.79-6.01-3.35-.04-5.91,2.42-5.98,5.74-.07,3.29,2.51,5.94,5.88,6.04,3.14.09,5.84-2.56,5.89-5.77Zm31.85,41.93c-3.25,0-5.85,2.64-5.83,5.92.02,3.23,2.67,5.83,5.95,5.85,3.24.02,5.85-2.63,5.85-5.92,0-3.42-2.49-5.85-5.97-5.86Zm-75.11,60.53c0,3.29,2.58,5.89,5.86,5.91,3.24.02,5.89-2.62,5.92-5.88.02-3.32-2.65-6.01-5.93-5.98-3.26.04-5.85,2.67-5.84,5.94Zm-5.21-54.18c0,3.36,2.51,5.89,5.83,5.91,3.24.02,5.98-2.69,5.93-5.87-.06-3.42-2.58-5.92-5.97-5.91-3.38,0-5.8,2.46-5.8,5.87Zm67.21-33.58c0,3.32,2.52,5.87,5.83,5.9,3.33.03,5.97-2.61,5.95-5.94-.02-3.24-2.68-5.84-5.94-5.84-3.28,0-5.84,2.58-5.84,5.88Zm-7.78,24.4c-3.32-.02-5.81,2.36-5.84,5.57-.03,3.49,2.45,6.22,5.65,6.21,3.38,0,6.11-2.68,6.11-5.97,0-3.27-2.56-5.78-5.92-5.8Zm5.66-3.28c0,3.3,2.57,5.89,5.86,5.9,3.26.01,5.91-2.61,5.93-5.86.01-3.33-2.59-5.92-5.96-5.92-3.32,0-5.84,2.53-5.83,5.87Z"/>
  </g>
</svg>