<?xml version="1.0" encoding="UTF-8"?>
<svg id="uuid-2444819a-d181-4fcd-a70e-98b2ea0a52af" data-name="Capa 2" xmlns="http://www.w3.org/2000/svg" viewBox="0 0 207.1 288.59">
  <defs>
    <style>
      .uuid-9af47eb4-c876-4fff-ba59-8d667eb58d4c {
        fill: #fff;
      }
    </style>
  </defs>
  <g id="uuid-c6db1e19-4dbd-40b3-b7a8-3552487d47d0" data-name="Capa 1">
    <path class="uuid-9af47eb4-c876-4fff-ba59-8d667eb58d4c" d="m95.18.02c58.95-1.11,88.91,57.34,84.2,108.87-2.63,18.82-7.43,37.5-8.81,56.57-.87,6.84-4.91,54.02,3.83,53.16,7.39,12.71,13.96,26.89,21.26,39.87,4.88,6.18,18.42,10.78,6.97,18.81-6.63,6.26-32,20.48-31.31,2.57,1.14-11.3-13.94-29.89-18.24-41.72-1.32-2.66-4.57-4.91-2.63-8.78-14.77-18.95-38.75-28.53-59.23-40.27C-26.96,156.95-35.15,14.51,95.18.02Zm62.76,192.43c-.15,0-.3-.02-.46-.02,0-6.3,1.58-21.26-8.95-16.55-5.34,4.54-30.07,10.47-20.9,19.61,11.84,10.82,30.07,22.96,30.3-3.03ZM43.04,90.76c6.21-.04,6.66-9.86.1-9.74-6.54-.25-6.31,9.55-.1,9.74Zm91.67-32.82c-6.08.12-6.27,9.46-.19,9.75,6.31.57,6.86-9.77.19-9.75Zm-31.87,21.18c5.89-.14,5.19-10.2-.68-9.76-6.46.37-6.31,9.91.68,9.76Zm-24.96,27.64c-.19-5.82-9.75-6.26-9.77.02-.14,6.61,9.42,6.58,9.77-.02Zm68.94,5.46c5.7-.31,4.99-10.19-1.01-9.59-6.46.33-6.16,10.17,1.01,9.59Zm-62.24-41.6c-6.23.39-5.96,10.29.57,9.65,6.31-.28,5.53-9.75-.57-9.65Zm59.28,7.4c-3.87,3.33-5.63,8.65,1.41,9.74,6.63-.38,6.53-10.26-1.41-9.74Zm-29.43,3.94c-6.06.48-5.68,9.78.35,9.83,6.28.19,6.34-10.16-.35-9.83Zm-41.66,1c-6.61-.26-6.62,9.84-.22,9.7,6.02.17,6.28-9.53.22-9.7Zm-29.07,32.31c6.58.14,6.48-9.84.03-9.65-6.12-.02-6.32,9.63-.03,9.65Zm15.5,15.17c-.26-6.31-9.57-6.18-9.82-.05-.41,6.1,10.05,6.51,9.82.05Zm43.39,18.03c-3.51-3.94-9.18-6.88-10.48.58.1,6.95,9.34,6.36,10.48-.58Zm12.25-95.39c6.32.08,6.64-9.75.24-9.73-6.35-.46-6.46,9.64-.24,9.73Zm4.79,51.65c.29-6.67-9.62-6.85-9.63-.34-.17,6.2,9.28,6.32,9.63.34Zm-40.56,39.86c-.61-5.96-10.15-5.42-9.75.77.36,6.52,10,5.8,9.75-.77Zm18-99.83c.28-6.71-9.32-7.37-9.74-.85-.4,6.07,9.21,6.79,9.74.85Zm-21.32,6.29c-.9-7.01-9.88-7.94-10.44-1.02.98,7.46,6.71,4.88,10.44,1.02Zm23.86,45.57c-.04-5.92-9.67-6.46-9.63-.15-.3,6.53,9.6,6.57,9.63.15Zm-8.02,23.03c.14-6.53-10-6.51-9.6.03-.03,6.18,9.51,5.79,9.6-.03Zm49.66,8.94c.15-6.66-10.05-6.28-9.62.1.08,6.05,9.7,5.98,9.62-.1Zm-22.9,19.49c6.86.28,7.29-9.32.81-9.74-5.98-.45-6.68,9.3-.81,9.74Zm-60.76-83.44c-.33-6.27-10.35-5.9-9.61.67.39,6.29,9.78,5.4,9.61-.67Zm47.86,48.14c-6.22.21-6.09,9.64.06,9.65,6.33.27,6.38-9.83-.06-9.65Z"/>
  </g>
</svg>